<svg width="369.000000" height="42.747070" viewBox="0 0 369 42.7471" fill="none" xmlns="http://www.w3.org/2000/svg" xmlns:xlink="http://www.w3.org/1999/xlink">
	<desc>
			Created with Pixso.
	</desc>
	<defs/>
	<path id="Vector" d="M369 41.77L362.59 41.77L362.59 37.66L362.48 37.66C361.68 39.14 360.48 40.34 358.88 41.26C357.32 42.13 355.72 42.57 354.08 42.57C350.19 42.57 347.37 41.62 345.62 39.71C343.91 37.77 343.05 34.86 343.05 30.97L343.05 12.23L349.57 12.23L349.57 30.34C349.57 32.93 350.06 34.76 351.05 35.83C352.04 36.89 353.43 37.43 355.22 37.43C356.59 37.43 357.74 37.22 358.65 36.8C359.57 36.38 360.31 35.83 360.88 35.14C361.45 34.42 361.85 33.56 362.08 32.57C362.35 31.58 362.48 30.51 362.48 29.37L362.48 12.23L369 12.23L369 41.77Z" fill="#FFFFFF" fill-opacity="0.100000" fill-rule="nonzero"/>
	<path id="Vector" d="M322.96 12.22L329.07 12.22L329.07 17.94L329.19 17.94C329.38 17.14 329.74 16.36 330.27 15.6C330.85 14.83 331.51 14.15 332.27 13.54C333.07 12.89 333.95 12.38 334.9 12C335.86 11.62 336.83 11.42 337.82 11.42C338.58 11.42 339.09 11.44 339.36 11.48C339.66 11.52 339.97 11.56 340.27 11.6L340.27 17.88C339.82 17.81 339.34 17.75 338.85 17.71C338.39 17.63 337.93 17.6 337.47 17.6C336.37 17.6 335.32 17.83 334.33 18.28C333.38 18.7 332.54 19.35 331.82 20.23C331.09 21.06 330.52 22.11 330.1 23.37C329.68 24.63 329.47 26.07 329.47 27.71L329.47 41.77L322.96 41.77L322.96 12.22Z" fill="#FFFFFF" fill-opacity="0.100000" fill-rule="nonzero"/>
	<path id="Vector" d="M307.57 34.06L315.51 34.06L315.51 41.77L307.57 41.77L307.57 34.06Z" fill="#FFFFFF" fill-opacity="0.100000" fill-rule="nonzero"/>
	<path id="Vector" d="M292.21 12.22L298.32 12.22L298.32 17.94L298.44 17.94C298.63 17.14 298.99 16.36 299.52 15.6C300.09 14.83 300.76 14.15 301.52 13.54C302.32 12.89 303.2 12.38 304.15 12C305.1 11.62 306.08 11.42 307.07 11.42C307.83 11.42 308.34 11.44 308.61 11.48C308.91 11.52 309.22 11.56 309.52 11.6L309.52 17.88C309.07 17.81 308.59 17.75 308.1 17.71C307.64 17.63 307.18 17.6 306.72 17.6C305.62 17.6 304.57 17.83 303.58 18.28C302.63 18.7 301.79 19.35 301.07 20.23C300.34 21.06 299.77 22.11 299.35 23.37C298.93 24.63 298.72 26.07 298.72 27.71L298.72 41.77L292.21 41.77L292.21 12.22Z" fill="#FFFFFF" fill-opacity="0.100000" fill-rule="nonzero"/>
	<path id="Vector" d="M280.74 24.4C280.66 23.37 280.44 22.38 280.06 21.43C279.71 20.47 279.22 19.65 278.57 18.97C277.96 18.24 277.2 17.67 276.28 17.25C275.41 16.8 274.42 16.57 273.31 16.57C272.17 16.57 271.12 16.78 270.17 17.2C269.25 17.58 268.45 18.13 267.77 18.85C267.12 19.54 266.59 20.36 266.17 21.31C265.79 22.26 265.58 23.29 265.54 24.4L280.74 24.4ZM265.54 28.68C265.54 29.83 265.69 30.93 266 32C266.34 33.07 266.84 34 267.48 34.8C268.13 35.6 268.95 36.25 269.94 36.74C270.93 37.2 272.11 37.43 273.48 37.43C275.39 37.43 276.91 37.03 278.06 36.23C279.24 35.39 280.11 34.15 280.68 32.51L286.86 32.51C286.51 34.11 285.92 35.54 285.08 36.8C284.25 38.06 283.24 39.12 282.06 40C280.87 40.84 279.54 41.47 278.06 41.88C276.61 42.34 275.08 42.57 273.48 42.57C271.16 42.57 269.1 42.19 267.31 41.43C265.52 40.67 264 39.6 262.74 38.23C261.52 36.86 260.59 35.22 259.94 33.31C259.33 31.41 259.02 29.31 259.02 27.03C259.02 24.93 259.35 22.95 260 21.08C260.68 19.18 261.63 17.52 262.85 16.11C264.11 14.66 265.62 13.52 267.37 12.68C269.12 11.84 271.1 11.42 273.31 11.42C275.64 11.42 277.71 11.92 279.54 12.91C281.41 13.86 282.95 15.14 284.17 16.74C285.39 18.34 286.26 20.19 286.8 22.28C287.37 24.34 287.52 26.47 287.26 28.68L265.54 28.68Z" fill="#FFFFFF" fill-opacity="0.100000" fill-rule="nonzero"/>
	<path id="Vector" d="M227.9 12.23L234.99 12.23L242.48 34.91L242.59 34.91L249.79 12.23L256.53 12.23L245.96 41.77L238.65 41.77L227.9 12.23Z" fill="#FFFFFF" fill-opacity="0.100000" fill-rule="nonzero"/>
	<path id="Vector" d="M223.81 35.2C223.81 36 223.9 36.57 224.09 36.91C224.32 37.26 224.74 37.43 225.35 37.43C225.54 37.43 225.77 37.43 226.04 37.43C226.3 37.43 226.61 37.39 226.95 37.31L226.95 41.83C226.72 41.9 226.42 41.98 226.04 42.06C225.69 42.17 225.33 42.27 224.95 42.34C224.57 42.42 224.19 42.48 223.81 42.51C223.43 42.55 223.1 42.57 222.84 42.57C221.5 42.57 220.4 42.3 219.52 41.77C218.65 41.24 218.07 40.3 217.81 38.97C216.51 40.23 214.91 41.14 213.01 41.71C211.14 42.29 209.33 42.57 207.58 42.57C206.24 42.57 204.97 42.38 203.75 42C202.53 41.66 201.44 41.14 200.49 40.46C199.58 39.73 198.83 38.84 198.26 37.77C197.73 36.66 197.46 35.39 197.46 33.94C197.46 32.11 197.79 30.63 198.43 29.48C199.12 28.34 200 27.45 201.06 26.8C202.17 26.15 203.39 25.69 204.72 25.43C206.09 25.12 207.46 24.89 208.83 24.74C210.02 24.51 211.14 24.36 212.21 24.28C213.27 24.17 214.21 24 215.01 23.77C215.85 23.54 216.49 23.2 216.95 22.74C217.45 22.25 217.69 21.52 217.69 20.57C217.69 19.73 217.48 19.04 217.06 18.51C216.68 17.98 216.19 17.58 215.58 17.31C215.01 17.01 214.36 16.82 213.64 16.74C212.91 16.62 212.23 16.57 211.58 16.57C209.75 16.57 208.24 16.95 207.06 17.71C205.88 18.47 205.22 19.65 205.06 21.25L198.55 21.25C198.66 19.35 199.12 17.77 199.92 16.51C200.72 15.25 201.73 14.24 202.95 13.48C204.21 12.72 205.62 12.19 207.18 11.88C208.74 11.58 210.34 11.42 211.98 11.42C213.43 11.42 214.85 11.58 216.26 11.88C217.67 12.19 218.93 12.68 220.04 13.37C221.18 14.05 222.09 14.95 222.78 16.05C223.46 17.12 223.81 18.43 223.81 20L223.81 35.2ZM217.29 26.97C216.3 27.62 215.08 28.02 213.64 28.17C212.19 28.28 210.74 28.47 209.29 28.74C208.61 28.86 207.94 29.03 207.29 29.25C206.64 29.45 206.07 29.73 205.58 30.11C205.08 30.46 204.68 30.93 204.38 31.54C204.11 32.11 203.98 32.82 203.98 33.66C203.98 34.38 204.19 34.99 204.61 35.48C205.03 35.98 205.52 36.38 206.09 36.68C206.7 36.95 207.35 37.14 208.03 37.26C208.76 37.37 209.41 37.43 209.98 37.43C210.7 37.43 211.48 37.33 212.32 37.14C213.16 36.95 213.94 36.63 214.66 36.17C215.43 35.71 216.05 35.14 216.55 34.46C217.05 33.73 217.29 32.86 217.29 31.83L217.29 26.97Z" fill="#FFFFFF" fill-opacity="0.100000" fill-rule="nonzero"/>
	<path id="Vector" d="M178.97 12.22L185.09 12.22L185.09 17.94L185.2 17.94C185.39 17.14 185.75 16.36 186.29 15.6C186.86 14.83 187.53 14.15 188.29 13.54C189.09 12.89 189.96 12.38 190.92 12C191.87 11.62 192.84 11.42 193.83 11.42C194.59 11.42 195.11 11.44 195.37 11.48C195.68 11.52 195.98 11.56 196.29 11.6L196.29 17.88C195.83 17.81 195.35 17.75 194.86 17.71C194.4 17.63 193.94 17.6 193.49 17.6C192.38 17.6 191.34 17.83 190.34 18.28C189.39 18.7 188.55 19.35 187.83 20.23C187.11 21.06 186.53 22.11 186.12 23.37C185.7 24.63 185.49 26.07 185.49 27.71L185.49 41.77L178.97 41.77L178.97 12.22Z" fill="#FFFFFF" fill-opacity="0.100000" fill-rule="nonzero"/>
	<path id="Vector" d="M144.21 0.97L150.72 0.97L150.72 16.05L150.84 16.05C151.29 15.33 151.85 14.68 152.49 14.11C153.14 13.54 153.85 13.06 154.61 12.68C155.41 12.26 156.23 11.96 157.06 11.77C157.94 11.54 158.8 11.42 159.64 11.42C161.96 11.42 163.98 11.84 165.69 12.68C167.45 13.48 168.89 14.61 170.04 16.05C171.18 17.46 172.04 19.12 172.61 21.03C173.18 22.93 173.47 24.97 173.47 27.14C173.47 29.12 173.2 31.04 172.67 32.91C172.17 34.78 171.39 36.44 170.32 37.88C169.29 39.29 167.98 40.44 166.38 41.31C164.78 42.15 162.89 42.57 160.72 42.57C159.73 42.57 158.72 42.49 157.69 42.34C156.7 42.23 155.75 41.98 154.84 41.6C153.92 41.22 153.08 40.72 152.32 40.11C151.6 39.5 150.99 38.7 150.49 37.71L150.38 37.71L150.38 41.77L144.21 41.77L144.21 0.97ZM166.95 27.03C166.95 25.69 166.78 24.4 166.44 23.14C166.09 21.88 165.58 20.78 164.89 19.83C164.21 18.83 163.35 18.05 162.32 17.48C161.29 16.87 160.11 16.57 158.78 16.57C156.04 16.57 153.96 17.52 152.55 19.42C151.18 21.33 150.49 23.86 150.49 27.03C150.49 28.51 150.66 29.9 151.01 31.2C151.39 32.46 151.94 33.54 152.66 34.46C153.39 35.37 154.25 36.09 155.24 36.63C156.26 37.16 157.45 37.43 158.78 37.43C160.27 37.43 161.52 37.12 162.55 36.51C163.58 35.9 164.42 35.12 165.07 34.17C165.75 33.18 166.23 32.07 166.49 30.85C166.8 29.6 166.95 28.32 166.95 27.03Z" fill="#FFFFFF" fill-opacity="0.100000" fill-rule="nonzero"/>
	<path id="Vector" d="M125.93 25.83C125.78 26.28 125.64 26.74 125.53 27.2C125.45 27.66 125.42 28.07 125.42 28.46C125.42 28.84 125.49 29.16 125.64 29.43C125.84 29.66 126.12 29.77 126.5 29.77C127.38 29.77 128.25 29.46 129.13 28.86C130.04 28.21 130.85 27.33 131.53 26.23C132.25 25.12 132.83 23.83 133.25 22.34C133.7 20.82 133.93 19.18 133.93 17.43C133.93 15.29 133.53 13.39 132.73 11.71C131.93 10 130.83 8.55 129.42 7.37C128.04 6.19 126.43 5.29 124.56 4.68C122.73 4.03 120.77 3.71 118.67 3.71C116.23 3.71 114.01 4.17 111.99 5.08C110 5.96 108.29 7.18 106.84 8.74C105.39 10.26 104.27 12.07 103.47 14.17C102.67 16.23 102.27 18.45 102.27 20.85C102.27 23.64 102.69 26.15 103.53 28.4C104.4 30.65 105.59 32.55 107.07 34.11C108.6 35.67 110.39 36.89 112.44 37.77C114.54 38.61 116.79 39.03 119.19 39.03C121.7 39.03 124.08 38.53 126.33 37.54C128.58 36.55 130.48 35.16 132.05 33.37L136.05 33.37C134.22 36.34 131.8 38.65 128.79 40.29C125.78 41.92 122.5 42.74 118.96 42.74C116.02 42.74 113.26 42.21 110.67 41.14C108.08 40.04 105.81 38.51 103.87 36.57C101.97 34.63 100.46 32.3 99.36 29.6C98.25 26.89 97.7 23.9 97.7 20.63C97.7 17.73 98.25 15.04 99.36 12.57C100.5 10.05 102.02 7.86 103.93 6C105.83 4.13 108.04 2.66 110.56 1.6C113.11 0.53 115.81 0 118.67 0C121.22 0 123.64 0.41 125.93 1.25C128.25 2.05 130.29 3.2 132.05 4.68C133.8 6.17 135.19 7.94 136.22 10C137.28 12.05 137.82 14.3 137.82 16.74C137.82 19.6 137.32 22.09 136.33 24.23C135.38 26.36 134.2 28.13 132.79 29.54C131.42 30.95 129.95 32.02 128.39 32.74C126.83 33.43 125.47 33.77 124.33 33.77C123.45 33.77 122.69 33.5 122.04 32.97C121.4 32.4 121.03 31.56 120.96 30.46L120.84 30.46C120.08 31.33 119.13 32.09 117.99 32.74C116.84 33.39 115.66 33.71 114.44 33.71C113.26 33.71 112.16 33.48 111.13 33.03C110.1 32.53 109.2 31.88 108.44 31.08C107.72 30.25 107.15 29.29 106.73 28.23C106.31 27.12 106.1 25.96 106.1 24.74C106.1 22.91 106.4 21.12 107.01 19.37C107.62 17.62 108.46 16.04 109.53 14.62C110.63 13.22 111.95 12.09 113.47 11.25C115.03 10.38 116.75 9.94 118.62 9.94C119.95 9.94 121.17 10.26 122.27 10.91C123.38 11.56 124.29 12.61 125.02 14.05L126.04 10.8L130.04 10.8L125.93 25.83ZM115.53 29.43C116.67 29.43 117.72 29.1 118.67 28.46C119.62 27.77 120.44 26.93 121.13 25.94C121.82 24.91 122.35 23.81 122.73 22.63C123.15 21.41 123.36 20.28 123.36 19.25C123.36 18.57 123.23 17.92 122.96 17.31C122.73 16.7 122.41 16.17 121.99 15.71C121.61 15.25 121.13 14.89 120.56 14.62C120.02 14.36 119.45 14.22 118.84 14.22C117.66 14.22 116.58 14.55 115.59 15.2C114.63 15.84 113.81 16.66 113.13 17.65C112.44 18.61 111.91 19.67 111.53 20.85C111.15 22.04 110.96 23.16 110.96 24.23C110.96 25.75 111.36 27.01 112.16 28C113 28.95 114.12 29.43 115.53 29.43Z" fill="#FFFFFF" fill-opacity="0.100000" fill-rule="nonzero"/>
	<path id="Vector" d="M77.99 42.57C75.63 42.57 73.52 42.19 71.65 41.43C69.82 40.63 68.26 39.54 66.96 38.17C65.71 36.8 64.74 35.16 64.05 33.26C63.4 31.35 63.08 29.25 63.08 26.97C63.08 24.72 63.4 22.64 64.05 20.74C64.74 18.83 65.71 17.2 66.96 15.83C68.26 14.45 69.82 13.39 71.65 12.62C73.52 11.83 75.63 11.42 77.99 11.42C80.36 11.42 82.45 11.83 84.28 12.62C86.15 13.39 87.71 14.45 88.97 15.83C90.26 17.2 91.23 18.83 91.88 20.74C92.57 22.64 92.91 24.72 92.91 26.97C92.91 29.25 92.57 31.35 91.88 33.26C91.23 35.16 90.26 36.8 88.97 38.17C87.71 39.54 86.15 40.63 84.28 41.43C82.45 42.19 80.36 42.57 77.99 42.57ZM77.99 37.43C79.44 37.43 80.7 37.12 81.77 36.51C82.83 35.9 83.71 35.1 84.4 34.11C85.08 33.12 85.58 32.02 85.88 30.8C86.22 29.54 86.4 28.26 86.4 26.97C86.4 25.71 86.22 24.46 85.88 23.2C85.58 21.94 85.08 20.83 84.4 19.88C83.71 18.89 82.83 18.09 81.77 17.48C80.7 16.87 79.44 16.57 77.99 16.57C76.55 16.57 75.29 16.87 74.22 17.48C73.16 18.09 72.28 18.89 71.59 19.88C70.91 20.83 70.39 21.94 70.05 23.2C69.75 24.46 69.59 25.71 69.59 26.97C69.59 28.26 69.75 29.54 70.05 30.8C70.39 32.02 70.91 33.12 71.59 34.11C72.28 35.1 73.16 35.9 74.22 36.51C75.29 37.12 76.55 37.43 77.99 37.43Z" fill="#FFFFFF" fill-opacity="0.100000" fill-rule="nonzero"/>
	<path id="Vector" d="M43.51 12.22L48.37 12.22L48.37 9.77C48.37 7.9 48.6 6.39 49.05 5.25C49.51 4.07 50.12 3.18 50.88 2.57C51.64 1.92 52.5 1.5 53.45 1.31C54.45 1.08 55.47 0.97 56.54 0.97C58.64 0.97 60.16 1.1 61.11 1.37L61.11 6.45C60.69 6.34 60.24 6.26 59.74 6.22C59.28 6.15 58.73 6.11 58.08 6.11C57.21 6.11 56.45 6.32 55.8 6.74C55.19 7.16 54.88 7.98 54.88 9.2L54.88 12.22L60.43 12.22L60.43 17.08L54.88 17.08L54.88 41.77L48.37 41.77L48.37 17.08L43.51 17.08L43.51 12.22Z" fill="#FFFFFF" fill-opacity="0.100000" fill-rule="nonzero"/>
	<path id="Vector" d="M13.61 12.22L19.78 12.22L19.78 16.57L19.89 16.68C20.89 15.04 22.18 13.77 23.78 12.85C25.38 11.9 27.15 11.42 29.1 11.42C32.33 11.42 34.89 12.26 36.75 13.94C38.62 15.62 39.55 18.13 39.55 21.48L39.55 41.77L33.04 41.77L33.04 23.2C32.96 20.87 32.47 19.2 31.55 18.17C30.64 17.1 29.21 16.57 27.27 16.57C26.16 16.57 25.17 16.78 24.3 17.2C23.42 17.58 22.68 18.13 22.07 18.85C21.46 19.54 20.98 20.36 20.64 21.31C20.29 22.26 20.12 23.27 20.12 24.34L20.12 41.77L13.61 41.77L13.61 12.22Z" fill="#FFFFFF" fill-opacity="0.100000" fill-rule="nonzero"/>
	<path id="Vector" d="M0 0.97L6.51 0.97L6.51 7.14L0 7.14L0 0.97ZM0 12.22L6.51 12.22L6.51 41.77L0 41.77L0 12.22Z" fill="#FFFFFF" fill-opacity="0.100000" fill-rule="nonzero"/>
</svg>
