<svg width="117.000000" height="44.000000" viewBox="0 0 117 44" fill="none" xmlns="http://www.w3.org/2000/svg" xmlns:xlink="http://www.w3.org/1999/xlink">
	
	<defs>
		<clipPath id="clip422_23059">
			<rect id="логотип Braver 1" rx="0.000000" width="116.000000" height="43.000000" transform="translate(0.500000 0.500000)" fill="white" fill-opacity="0"/>
		</clipPath>
	</defs>
	<rect id="логотип Braver 1" rx="0.000000" width="116.000000" height="43.000000" transform="translate(0.500000 0.500000)" fill="#FFFFFF" fill-opacity="0"/>
	<g clip-path="url(#clip422_23059)">
		<mask id="mask422_23061" mask-type="alpha" maskUnits="userSpaceOnUse" x="5.834473" y="7.065674" width="27.729004" height="31.024170">
			<path id="Vector" d="M5.83 7.06L33.56 7.06L33.56 38.08L5.83 38.08L5.83 7.06Z" fill="#000000" fill-opacity="1.000000" fill-rule="nonzero"/>
		</mask>
		<g mask="url(#mask422_23061)">
			<path id="Vector" d="M7.16 14.28C7.3 16.07 7.62 19.13 8.33 22.18C8.81 24.28 9.49 26.38 10.41 28.03C11.79 30.48 13.71 32.42 15.52 33.88C17.17 35.2 18.72 36.12 19.7 36.64C20.67 36.12 22.22 35.2 23.86 33.88C25.67 32.43 27.6 30.48 28.98 28.03C29.9 26.38 30.57 24.29 31.06 22.18C31.77 19.14 32.09 16.07 32.22 14.28C30.45 13.47 29.2 12.4 28.32 11.29C27.51 10.28 27.01 9.24 26.7 8.35L12.69 8.35C12.33 9.4 11.69 10.66 10.6 11.83C9.76 12.74 8.64 13.6 7.16 14.28ZM7.08 22.46C6.29 19.06 5.97 15.65 5.86 13.92L5.83 13.47L6.25 13.29C7.75 12.67 8.85 11.84 9.66 10.97C10.76 9.79 11.32 8.52 11.61 7.53L11.75 7.07L27.64 7.07L27.78 7.53C28.03 8.39 28.49 9.46 29.32 10.5C30.15 11.54 31.37 12.56 33.13 13.29L33.56 13.47L33.53 13.92C33.41 15.65 33.09 19.06 32.3 22.47C31.79 24.67 31.08 26.88 30.09 28.64C28.62 31.27 26.58 33.34 24.66 34.87C22.76 36.4 20.97 37.41 19.99 37.92L19.7 38.07L19.4 37.92C18.42 37.41 16.63 36.4 14.72 34.87C12.81 33.33 10.77 31.26 9.3 28.64C8.31 26.87 7.59 24.67 7.08 22.46Z" fill="#FFFFFF" fill-opacity="1.000000" fill-rule="nonzero"/>
		</g>
		<mask id="mask422_23066" mask-type="alpha" maskUnits="userSpaceOnUse" x="22.024902" y="11.807861" width="23.427734" height="19.109131">
			<path id="Vector" d="M22.02 11.8L45.45 11.8L45.45 30.91L22.02 30.91L22.02 11.8Z" fill="#000000" fill-opacity="1.000000" fill-rule="nonzero"/>
		</mask>
		<path id="Vector" d="M19.32 12.68L21.86 12.68C24.53 12.52 25.22 12.5 25.62 12.5L26.04 12.5C31.3 12.5 34.05 13.95 34.05 16.68C34.05 18.02 33.42 19 32.18 19.63C31.33 20.05 30.72 20.31 29 20.65C30.72 20.86 31.46 21.13 32.44 21.63C34.03 22.49 34.9 23.94 34.9 25.62C34.9 26.6 34.56 27.57 33.95 28.28C32.76 29.67 31.09 30.23 27.84 30.23L19.32 30.23L19.32 29.86C20.14 29.52 20.38 29.09 20.38 28.12L20.38 14.79C20.38 13.81 20.14 13.39 19.32 13.05L19.32 12.68ZM24.69 20.34L25.91 20.34C28.74 20.34 30.17 19.13 30.17 16.71C30.17 14.5 28.79 13.18 26.54 13.18C25.19 13.18 24.69 13.6 24.69 14.73L24.69 20.34ZM24.69 21.2L24.69 28.1C24.69 29.17 25.22 29.57 26.62 29.57C27.34 29.57 27.92 29.46 28.39 29.28C29.69 28.73 30.62 27.1 30.62 25.31C30.62 22.6 29.05 21.2 26.01 21.2L24.69 21.2Z" fill="#FFFFFF" fill-opacity="1.000000" fill-rule="nonzero"/>
		<path id="Vector" d="M51.7 31.41L51.7 31.99C46.48 30.02 43.92 27.28 42.65 22.13C42.46 22.15 42.31 22.15 42.23 22.15L41.88 22.15C41.56 22.15 41.3 22.15 40.8 22.07L40.8 28.12C40.8 29.1 41.04 29.52 41.86 29.86L41.86 30.23L35.4 30.23L35.4 29.86C36.22 29.52 36.46 29.1 36.46 28.12L36.46 14.79C36.46 13.81 36.22 13.39 35.4 13.05L35.4 12.68L37.44 12.68C37.89 12.68 38.71 12.66 39.79 12.58C41.06 12.5 42.52 12.45 43.39 12.45C48.28 12.45 50.95 14.16 50.95 17.29C50.95 18.65 50.35 19.92 49.21 20.76C48.73 21.13 47.89 21.49 46.7 21.86C48.18 26.73 50 30.36 51.7 31.41ZM40.8 15.02L40.8 21.26C41.14 21.28 41.38 21.31 41.56 21.31L42.12 21.31C45.11 21.31 46.64 19.94 46.64 17.31C46.64 15 44.84 13.18 42.62 13.18C41.33 13.18 40.8 13.68 40.8 15.02Z" fill="#FFFFFF" fill-opacity="1.000000" fill-rule="nonzero"/>
		<path id="Vector" d="M53.91 24.6L52.8 28.12C52.72 28.31 52.7 28.52 52.7 28.7C52.7 29.31 53.1 29.65 54.23 29.88L54.23 30.23L49.68 30.23L49.68 29.88C50.71 29.59 51.24 29.15 51.64 28.12L56.77 12.52L60.16 12.52L65.18 28.12C65.53 29.09 66 29.67 66.64 29.88L66.64 30.23L60.18 30.23L60.18 29.88C60.79 29.67 61.03 29.41 61.03 28.88C61.03 28.67 60.98 28.41 60.87 28.12L59.73 24.6L53.91 24.6ZM54.34 23.54L59.39 23.54L56.85 15.79L54.34 23.54Z" fill="#FFFFFF" fill-opacity="1.000000" fill-rule="nonzero"/>
		<path id="Vector" d="M74.47 30.23L71.11 30.23L65.92 14.79C65.58 13.81 65.13 13.31 64.47 13.02L64.47 12.68L70.9 12.68L70.9 13.02C70.37 13.23 70.1 13.58 70.1 14.02C70.1 14.26 70.15 14.5 70.26 14.79L74.39 27.25L78.33 14.79C78.38 14.6 78.41 14.42 78.41 14.23C78.41 13.58 78.04 13.26 76.9 13.02L76.9 12.68L81.32 12.68L81.32 13.02C80.36 13.31 79.81 13.81 79.47 14.79L74.47 30.23Z" fill="#FFFFFF" fill-opacity="1.000000" fill-rule="nonzero"/>
		<path id="Vector" d="M93.48 12.68L93.77 16.05L93.16 16.05C92.34 14.16 91.18 13.34 89.09 13.34L87.66 13.34C86.42 13.34 85.92 13.76 85.92 14.81L85.92 20.07L88.32 20.07C90.02 20.07 90.86 19.52 91.05 18.26L91.6 18.26L91.6 22.76L91.05 22.76C90.97 21.41 90.2 20.84 88.32 20.84L85.92 20.84L85.92 27.88C85.92 29.23 86.39 29.57 88.17 29.57L89.46 29.57C91.92 29.57 93.32 28.62 94.17 26.39L94.73 26.6L93.77 30.23L80.52 30.23L80.52 29.86C81.34 29.52 81.58 29.09 81.58 28.12L81.58 14.79C81.58 13.81 81.34 13.39 80.52 13.05L80.52 12.68L93.48 12.68Z" fill="#FFFFFF" fill-opacity="1.000000" fill-rule="nonzero"/>
		<path id="Vector" d="M111.28 31.41L111.28 31.99C106.07 30.02 103.51 27.28 102.24 22.13C102.05 22.15 101.89 22.15 101.81 22.15L101.47 22.15C101.15 22.15 100.89 22.15 100.38 22.07L100.38 28.12C100.38 29.1 100.62 29.52 101.44 29.86L101.44 30.23L94.99 30.23L94.99 29.86C95.81 29.52 96.05 29.1 96.05 28.12L96.05 14.79C96.05 13.81 95.81 13.39 94.99 13.05L94.99 12.68L97.02 12.68C97.47 12.68 98.29 12.66 99.38 12.58C100.65 12.5 102.1 12.45 102.98 12.45C107.87 12.45 110.54 14.16 110.54 17.29C110.54 18.65 109.93 19.92 108.8 20.76C108.32 21.13 107.47 21.49 106.28 21.86C107.76 26.73 109.59 30.36 111.28 31.41ZM100.38 15.02L100.38 21.26C100.73 21.28 100.97 21.31 101.15 21.31L101.71 21.31C104.7 21.31 106.23 19.94 106.23 17.31C106.23 15 104.43 13.18 102.21 13.18C100.91 13.18 100.38 13.68 100.38 15.02Z" fill="#FFFFFF" fill-opacity="1.000000" fill-rule="nonzero"/>
		<mask id="mask422_23093" mask-type="alpha" maskUnits="userSpaceOnUse" x="18.318604" y="11.159180" width="2.286621" height="20.219482">
			<path id="Vector" d="M18.31 11.15L20.6 11.15L20.6 31.37L18.31 31.37L18.31 11.15Z" fill="#000000" fill-opacity="1.000000" fill-rule="nonzero"/>
		</mask>
		<mask id="mask422_23096" mask-type="alpha" maskUnits="userSpaceOnUse" x="15.350342" y="12.388428" width="3.909912" height="4.015625">
			<path id="Vector" d="M15.35 12.38L19.26 12.38L19.26 16.4L15.35 16.4L15.35 12.38Z" fill="#000000" fill-opacity="1.000000" fill-rule="nonzero"/>
		</mask>
		<g mask="url(#mask422_23096)">
			<path id="Vector" d="M15.99 13.14L16.03 13.25C16.07 13.42 16.13 13.58 16.18 13.74L16.21 13.82L16.22 13.85C16.24 13.89 16.25 13.92 16.26 13.96L16.34 14C16.44 14.02 16.54 14.02 16.64 14.03C16.78 14.05 16.92 14.11 17.07 14.13C17.21 14.15 17.37 14.19 17.52 14.24C17.54 14.35 17.55 14.46 17.58 14.57C17.61 14.69 17.62 14.82 17.66 14.94C17.69 15.06 17.71 15.18 17.73 15.29L17.75 15.35C17.77 15.45 17.79 15.55 17.81 15.64C17.9 15.68 17.99 15.73 18.08 15.79C18.34 15.95 18.61 16.11 18.89 16.25C18.99 16.31 19.1 16.36 19.22 16.39C19.34 16.42 19.46 16.33 19.58 16.27C19.82 16.17 20.03 16.03 20.26 15.9C20.38 15.83 20.49 15.75 20.61 15.69C20.66 15.66 20.7 15.63 20.74 15.59C20.75 15.46 20.78 15.34 20.81 15.22C20.86 15.01 20.91 14.8 20.95 14.59L20.96 14.54C20.98 14.46 20.99 14.38 21.01 14.3L21.01 14.25C21.11 14.2 21.21 14.19 21.31 14.17C21.45 14.14 21.59 14.11 21.73 14.07C21.91 14.03 22.11 14.01 22.3 13.97C22.33 13.83 22.39 13.69 22.43 13.55C22.49 13.36 22.54 13.16 22.6 12.97C22.64 12.89 22.64 12.78 22.71 12.72C22.85 12.66 22.99 12.61 23.13 12.54L23.13 12.39C22.93 12.42 22.73 12.42 22.53 12.46C22.33 12.5 22.09 12.5 21.88 12.54C21.67 12.58 21.47 12.56 21.27 12.6C21.16 12.6 21.06 12.63 20.95 12.62L20.93 12.64L20.76 12.65C20.68 12.66 20.6 12.66 20.52 12.68C20.44 12.7 20.32 12.69 20.22 12.71C20 12.73 19.77 12.74 19.55 12.77C19.46 12.78 19.38 12.78 19.3 12.79C18.98 12.78 18.66 12.73 18.34 12.72C18.21 12.7 18.07 12.7 17.95 12.67C17.59 12.65 17.23 12.57 16.87 12.56C16.75 12.54 16.62 12.54 16.5 12.51C16.32 12.5 16.15 12.47 15.98 12.46C15.78 12.42 15.58 12.41 15.38 12.41L15.36 12.5C15.53 12.61 15.72 12.68 15.9 12.78C15.92 12.9 15.96 13.02 15.99 13.14Z" fill="#FFFFFF" fill-opacity="1.000000" fill-rule="nonzero"/>
		</g>
		<mask id="mask422_23101" mask-type="alpha" maskUnits="userSpaceOnUse" x="11.327637" y="13.891113" width="7.932617" height="16.437012">
			<path id="Vector" d="M11.32 13.89L19.26 13.89L19.26 30.32L11.32 30.32L11.32 13.89Z" fill="#000000" fill-opacity="1.000000" fill-rule="nonzero"/>
		</mask>
		<g mask="url(#mask422_23101)">
			<path id="Vector" d="M26.74 22.82C26.59 22.7 26.48 22.52 26.33 22.4C26.16 22.22 25.99 22.05 25.82 21.89C25.68 21.75 25.54 21.6 25.4 21.46C25.43 21.39 25.48 21.33 25.52 21.26C25.6 21.1 25.72 20.96 25.8 20.8C25.88 20.64 25.98 20.54 26.04 20.4C26.11 20.26 26.2 20.12 26.3 19.99C26.41 19.84 26.51 19.67 26.61 19.51C26.71 19.38 26.78 19.24 26.87 19.12C26.97 19 27.08 18.82 27.19 18.68L27.18 18.64C27.05 18.59 26.94 18.51 26.81 18.46C26.55 18.32 26.28 18.2 26.02 18.07C25.72 17.92 25.41 17.8 25.11 17.64C24.99 17.58 24.87 17.52 24.74 17.48C24.74 17.76 24.79 18.05 24.78 18.34C24.72 18.28 24.67 18.22 24.63 18.15C24.53 18 24.4 17.88 24.29 17.73C24.19 17.58 24.05 17.43 23.96 17.27C23.82 17.09 23.69 16.91 23.57 16.72C23.45 16.56 23.32 16.41 23.21 16.24C23.11 16.11 23 16 22.91 15.86L22.97 15.83L23.02 15.83L23.04 15.82C23.09 15.81 23.14 15.79 23.2 15.78C23.31 15.75 23.42 15.74 23.53 15.7C23.7 15.67 23.87 15.62 24.05 15.59C24.22 15.57 24.36 15.52 24.51 15.48L24.57 15.48C24.64 15.46 24.72 15.44 24.79 15.43C24.8 15.69 24.85 15.94 24.85 16.19C24.88 16.5 24.91 16.81 24.93 17.12C24.97 17.18 24.99 17.25 25.05 17.28C25.11 17.31 25.2 17.32 25.27 17.34C25.35 17.36 25.47 17.39 25.55 17.44L25.64 17.45C25.68 17.41 25.72 17.39 25.77 17.36L25.79 17.3C25.76 17.21 25.75 17.12 25.74 17.02C25.69 16.85 25.69 16.67 25.65 16.5C25.64 16.44 25.63 16.39 25.63 16.33L25.62 16.31C25.6 16.09 25.56 15.88 25.54 15.66C25.53 15.55 25.51 15.44 25.48 15.33C25.47 15.2 25.46 15.07 25.44 14.95C25.42 14.87 25.35 14.82 25.29 14.77C25.1 14.62 24.92 14.45 24.76 14.27C24.63 14.15 24.52 14.03 24.4 13.91L24.28 13.93C24.06 13.99 23.84 13.99 23.63 14.07L23.58 14.08C23.28 14.17 22.97 14.24 22.67 14.33C22.5 14.37 22.33 14.42 22.16 14.46L22.12 14.47C22.03 14.5 21.94 14.51 21.85 14.53C21.71 14.58 21.56 14.58 21.43 14.64L21.42 14.71C21.39 14.89 21.36 15.08 21.32 15.26C21.31 15.35 21.29 15.44 21.28 15.53L21.34 15.54C21.52 15.68 21.67 15.84 21.83 15.99C21.96 16.09 22.07 16.22 22.2 16.32C22.32 16.43 22.41 16.51 22.51 16.6C22.65 16.73 22.79 16.86 22.94 16.97C23.09 17.09 23.24 17.19 23.36 17.33C23.43 17.4 23.46 17.49 23.52 17.56C23.58 17.63 23.61 17.74 23.67 17.82C23.74 17.9 23.81 18.02 23.88 18.13C23.95 18.23 24.01 18.33 24.08 18.43C24.23 18.62 24.35 18.83 24.5 19.02C24.61 19.16 24.69 19.33 24.8 19.46C24.88 19.56 24.94 19.66 25.02 19.76C24.93 19.86 24.84 19.97 24.74 20.07C24.56 20.3 24.37 20.52 24.18 20.74C23.99 20.99 23.76 21.21 23.58 21.47C23.48 21.6 23.36 21.72 23.27 21.85C23.17 21.99 23.07 22.07 22.98 22.19C22.82 22.38 22.65 22.57 22.51 22.78C22.44 22.88 22.42 23.01 22.37 23.13C22.34 23.21 22.32 23.3 22.28 23.39C22.22 23.56 22.17 23.74 22.1 23.91L22.09 23.95L22.06 24.03C22.04 24.11 22.02 24.19 21.99 24.26L21.98 24.3C21.92 24.46 21.86 24.62 21.8 24.79C21.74 24.95 21.7 25.07 21.66 25.22L21.63 25.27C21.6 25.39 21.6 25.51 21.58 25.63C21.57 25.71 21.57 25.8 21.57 25.89L21.57 25.87C21.54 26.12 21.55 26.38 21.49 26.62C21.4 26.59 21.33 26.53 21.26 26.48C21.19 26.43 21.13 26.37 21.07 26.31C20.78 26.49 20.48 26.63 20.17 26.75C19.98 26.85 19.79 26.92 19.6 27.01C19.5 27.05 19.4 27.11 19.29 27.13C19.21 27.13 19.15 27.09 19.08 27.06C18.91 26.98 18.73 26.92 18.57 26.83C18.22 26.69 17.86 26.56 17.56 26.33C17.43 26.41 17.29 26.49 17.17 26.59C17.12 26.55 17.08 26.52 17.03 26.48C17.01 26.11 17 25.73 16.95 25.35L16.93 25.34L16.93 25.28C16.87 25.13 16.83 24.96 16.77 24.81L16.73 24.71C16.67 24.52 16.6 24.33 16.54 24.14L16.5 24.03C16.46 23.94 16.44 23.85 16.4 23.76C16.38 23.72 16.37 23.67 16.36 23.62L16.33 23.59C16.32 23.52 16.29 23.44 16.26 23.37C16.21 23.22 16.16 23.07 16.11 22.92C16.07 22.81 15.99 22.71 15.91 22.61C15.79 22.48 15.69 22.33 15.58 22.2C15.35 21.94 15.14 21.68 14.92 21.41C14.58 20.98 14.22 20.57 13.86 20.15C13.75 20.02 13.64 19.9 13.54 19.76C13.66 19.58 13.81 19.42 13.91 19.24C14.01 19.09 14.12 18.95 14.21 18.81C14.32 18.62 14.48 18.46 14.59 18.27C14.67 18.15 14.74 18.03 14.83 17.91C14.92 17.8 15 17.64 15.08 17.5C15.21 17.29 15.41 17.16 15.59 17.01C15.76 16.89 15.89 16.74 16.05 16.61C16.27 16.41 16.49 16.21 16.7 16C16.89 15.83 17.07 15.66 17.27 15.5C17.25 15.41 17.24 15.32 17.22 15.23C17.17 15.03 17.16 14.83 17.11 14.63C17 14.6 16.88 14.59 16.77 14.57C16.66 14.55 16.51 14.51 16.37 14.48C16.19 14.42 16.01 14.38 15.82 14.33L15.78 14.31C15.72 14.29 15.66 14.28 15.6 14.26C15.48 14.22 15.35 14.2 15.23 14.16C15.11 14.13 14.96 14.1 14.84 14.05C14.67 14.01 14.51 13.97 14.34 13.95L14.27 13.93C14.23 13.92 14.2 13.91 14.17 13.91C14.04 14 13.94 14.12 13.82 14.23C13.66 14.39 13.52 14.55 13.35 14.7C13.28 14.75 13.23 14.82 13.16 14.87C13.13 14.9 13.08 14.92 13.09 14.96C13.09 15.06 13.08 15.16 13.08 15.25L13.07 15.28C13.06 15.38 13.03 15.48 13.02 15.59C13.01 15.66 13.01 15.73 12.99 15.81C12.99 15.86 12.98 15.91 12.97 15.96C12.94 16.13 12.92 16.31 12.89 16.48C12.86 16.66 12.84 16.78 12.82 16.93C12.8 16.99 12.79 17.04 12.79 17.1C12.78 17.23 12.75 17.35 12.75 17.47L12.88 17.41C13.02 17.39 13.18 17.39 13.32 17.33L13.37 17.32L13.5 17.28L13.55 17.26C13.57 17.1 13.61 16.94 13.62 16.77C13.64 16.53 13.68 16.29 13.7 16.05C13.71 15.81 13.73 15.63 13.75 15.42C13.81 15.44 13.87 15.46 13.94 15.47C14.16 15.52 14.38 15.57 14.61 15.61C14.83 15.65 15.11 15.74 15.36 15.78L15.42 15.8C15.5 15.82 15.57 15.83 15.65 15.84C15.59 15.92 15.53 15.99 15.47 16.06C15.31 16.29 15.14 16.5 14.98 16.72C14.82 16.95 14.65 17.16 14.5 17.4C14.44 17.5 14.35 17.58 14.28 17.68C14.2 17.8 14.1 17.92 14 18.02C13.91 18.13 13.83 18.26 13.73 18.36C13.73 18.19 13.76 18.02 13.78 17.86C13.79 17.73 13.8 17.6 13.83 17.47C13.64 17.55 13.45 17.61 13.28 17.72C13.11 17.82 12.9 17.89 12.71 17.97C12.52 18.06 12.32 18.17 12.12 18.26C11.85 18.37 11.59 18.52 11.32 18.64C11.38 18.72 11.43 18.8 11.48 18.88C11.58 19.02 11.68 19.16 11.77 19.3C11.81 19.38 11.88 19.44 11.92 19.51C12.06 19.77 12.24 20 12.39 20.26C12.54 20.51 12.68 20.74 12.84 20.98C12.92 21.11 13.02 21.23 13.09 21.37C13.11 21.4 13.14 21.43 13.12 21.47C13.06 21.57 12.97 21.65 12.88 21.73C12.71 21.91 12.53 22.08 12.35 22.25C12.29 22.33 12.22 22.4 12.14 22.48C12.06 22.55 11.98 22.67 11.88 22.75C11.79 22.83 11.68 22.97 11.56 23.06L11.55 23.12C11.64 23.13 11.73 23.16 11.82 23.17C11.91 23.19 12.06 23.22 12.17 23.25L12.23 23.28C12.32 23.3 12.41 23.32 12.51 23.35C12.6 23.37 12.71 23.38 12.8 23.41C13.01 23.47 13.23 23.51 13.45 23.56L13.52 23.58C13.61 23.6 13.69 23.62 13.78 23.64C13.84 23.66 13.9 23.67 13.97 23.68C13.79 23.97 13.7 24.29 13.54 24.59C13.51 24.63 13.47 24.68 13.5 24.73C13.59 24.91 13.68 25.09 13.76 25.27C13.94 25.55 14.11 25.84 14.28 26.12C14.47 26.36 14.6 26.63 14.77 26.87C14.83 26.99 14.9 27.1 14.96 27.21C14.97 26.96 14.96 26.71 14.97 26.46C14.98 26.34 14.98 26.22 14.99 26.1C15.01 26.01 14.99 25.92 15.02 25.84C15.03 25.51 15.05 25.19 15.07 24.87C15.08 24.83 15.07 24.79 15.1 24.76C15.2 24.64 15.33 24.54 15.45 24.42C15.56 24.31 15.66 24.24 15.75 24.14C15.85 24.04 15.93 23.99 16.01 23.91C16.01 23.98 16.01 24.05 15.99 24.11C15.98 24.19 15.97 24.28 15.96 24.36C15.92 24.47 15.91 24.58 15.89 24.69C15.89 24.72 15.88 24.74 15.87 24.77L15.87 24.83L15.85 24.85C15.84 24.98 15.81 25.11 15.8 25.24L15.77 25.31C15.75 25.42 15.74 25.52 15.71 25.63C15.69 25.73 15.67 25.89 15.64 26.03C15.62 26.1 15.61 26.17 15.6 26.25C15.58 26.42 15.52 26.6 15.49 26.77L15.47 26.83C15.45 26.91 15.43 26.98 15.41 27.06L15.39 27.12C15.38 27.18 15.36 27.24 15.36 27.3C15.39 27.41 15.45 27.5 15.51 27.6C15.56 27.7 15.63 27.83 15.69 27.95C15.75 28.04 15.81 28.14 15.85 28.25C15.95 28.39 16.01 28.55 16.11 28.69C16.21 28.83 16.27 28.99 16.35 29.13C16.39 29.2 16.42 29.27 16.47 29.34L16.48 29.37C16.57 29.51 16.64 29.65 16.72 29.79C16.73 29.73 16.74 29.68 16.75 29.63L16.77 29.55C16.78 29.53 16.78 29.5 16.79 29.47L16.81 29.41L16.82 29.4C16.84 29.29 16.86 29.19 16.89 29.08C16.92 28.97 16.93 28.85 16.97 28.74L17.02 28.55C17.29 28.77 17.57 28.98 17.85 29.18C17.93 29.24 17.99 29.32 18.07 29.37C18.15 29.43 18.26 29.53 18.37 29.59C18.45 29.65 18.53 29.71 18.6 29.78C18.72 29.89 18.88 29.98 19 30.1C19.09 30.17 19.17 30.25 19.26 30.32C19.33 30.27 19.39 30.21 19.45 30.15C19.64 30.01 19.82 29.85 20.01 29.71C20.14 29.59 20.3 29.5 20.44 29.37C20.57 29.25 20.76 29.12 20.92 29C21.12 28.85 21.31 28.7 21.52 28.56C21.53 28.64 21.55 28.71 21.57 28.79L21.6 28.85C21.61 28.93 21.62 29.02 21.65 29.1C21.7 29.22 21.7 29.35 21.73 29.47L21.75 29.53C21.77 29.62 21.78 29.7 21.8 29.79L21.83 29.78C21.85 29.72 21.87 29.67 21.9 29.63C22.03 29.46 22.1 29.27 22.21 29.09C22.31 28.92 22.43 28.69 22.55 28.5C22.77 28.08 23.01 27.67 23.21 27.25C23.19 27.2 23.16 27.15 23.14 27.1C23.09 26.89 23.03 26.68 22.99 26.46C22.96 26.33 22.95 26.19 22.92 26.05C22.88 25.91 22.87 25.74 22.82 25.58C22.78 25.43 22.78 25.33 22.75 25.2C22.73 25.07 22.72 24.92 22.68 24.79C22.64 24.65 22.63 24.47 22.59 24.32C22.55 24.16 22.54 24.04 22.53 23.91C22.63 24 22.73 24.09 22.83 24.17C22.94 24.29 23.08 24.39 23.2 24.5C23.29 24.59 23.38 24.69 23.49 24.77C23.49 24.95 23.51 25.13 23.51 25.31C23.52 25.44 23.53 25.57 23.53 25.7L23.55 25.72C23.55 25.82 23.54 25.91 23.56 26.01C23.59 26.41 23.59 26.81 23.59 27.21C23.61 27.18 23.63 27.15 23.65 27.12C23.68 27.01 23.75 26.91 23.81 26.81C23.91 26.63 24.04 26.46 24.15 26.27C24.31 26.04 24.45 25.79 24.6 25.56C24.66 25.48 24.69 25.39 24.75 25.32C24.87 25.16 24.92 24.96 25 24.79C25.02 24.75 25.05 24.7 25.03 24.65C25.02 24.6 24.97 24.52 24.95 24.46C24.92 24.39 24.87 24.31 24.85 24.23C24.8 24.08 24.7 23.95 24.65 23.79L24.6 23.68C24.75 23.65 24.89 23.61 25.04 23.58L25.12 23.56C25.2 23.54 25.28 23.52 25.36 23.51C25.47 23.47 25.59 23.45 25.71 23.43L25.77 23.41C25.86 23.39 25.95 23.37 26.04 23.35L26.1 23.33C26.2 23.31 26.3 23.29 26.39 23.26C26.51 23.22 26.63 23.2 26.75 23.17L26.95 23.13L27.03 23.12C26.94 23.02 26.83 22.93 26.74 22.82Z" fill="#FFFFFF" fill-opacity="1.000000" fill-rule="nonzero"/>
		</g>
		<mask id="mask422_23106" mask-type="alpha" maskUnits="userSpaceOnUse" x="14.227295" y="16.528076" width="5.032959" height="7.942139">
			<path id="Vector" d="M14.22 16.52L19.26 16.52L19.26 24.47L14.22 24.47L14.22 16.52Z" fill="#000000" fill-opacity="1.000000" fill-rule="nonzero"/>
		</mask>
		<g mask="url(#mask422_23106)">
			<path id="Vector" d="M22.58 21.37C22.77 21.22 22.94 21.05 23.14 20.9C23.21 20.86 23.26 20.8 23.32 20.75C23.43 20.65 23.55 20.57 23.65 20.47C23.75 20.37 23.87 20.29 23.98 20.19C24.08 20.1 24.17 20.03 24.27 19.95C24.19 19.83 24.09 19.73 24 19.61C23.91 19.5 23.78 19.37 23.68 19.25C23.54 19.05 23.35 18.89 23.25 18.66C23.21 18.54 23.14 18.43 23.09 18.31C23.06 18.25 23.03 18.18 22.98 18.13C22.87 18.03 22.77 17.92 22.65 17.83C22.46 17.66 22.26 17.48 22.05 17.32C21.96 17.23 21.87 17.15 21.77 17.08C21.62 16.96 21.49 16.84 21.35 16.72C21.28 16.67 21.2 16.61 21.14 16.55L21.11 16.55C20.74 16.75 20.36 16.93 19.97 17.08C19.74 17.16 19.52 17.27 19.29 17.37C19.2 17.37 19.11 17.31 19.02 17.28C18.7 17.12 18.35 17.02 18.02 16.85C17.82 16.75 17.61 16.66 17.42 16.54C17.08 16.84 16.72 17.12 16.38 17.42C16.22 17.54 16.07 17.68 15.92 17.81C15.8 17.9 15.71 18 15.6 18.09C15.53 18.15 15.48 18.23 15.45 18.31C15.42 18.38 15.38 18.44 15.35 18.51C15.3 18.62 15.26 18.75 15.18 18.85C15 19.08 14.81 19.31 14.61 19.53C14.5 19.67 14.38 19.8 14.25 19.92L14.26 19.94C14.45 20.08 14.61 20.25 14.79 20.4C14.9 20.47 14.98 20.57 15.08 20.65C15.28 20.81 15.46 20.99 15.68 21.14C15.89 21.28 16.08 21.46 16.26 21.64C16.41 21.77 16.56 21.91 16.71 22.03C16.69 22.23 16.63 22.42 16.6 22.61C16.55 22.78 16.52 22.95 16.51 23.12C16.64 23.24 16.82 23.28 16.98 23.37L17.01 23.45L17.02 23.52C17.07 23.67 17.07 23.82 17.12 23.97C17.14 24.06 17.16 24.15 17.2 24.24C17.24 24.33 17.24 24.37 17.26 24.43C17.36 24.34 17.46 24.25 17.55 24.15C17.54 24.07 17.56 23.96 17.49 23.91C17.68 23.82 17.89 23.76 18.08 23.67C18.27 23.58 18.48 23.5 18.68 23.41C18.85 23.33 19.01 23.26 19.18 23.19C19.22 23.17 19.27 23.15 19.32 23.17C19.46 23.24 19.61 23.3 19.75 23.37C20 23.48 20.26 23.59 20.51 23.7C20.66 23.76 20.81 23.84 20.97 23.85C21 23.96 20.99 24.08 21.04 24.18C21.08 24.29 21.11 24.37 21.19 24.43C21.27 24.34 21.32 24.23 21.37 24.12C21.41 24.01 21.42 23.95 21.45 23.87C21.48 23.72 21.48 23.57 21.5 23.42C21.67 23.3 21.87 23.24 22.03 23.12C22.04 23 22 22.88 21.99 22.76C21.94 22.65 21.93 22.53 21.9 22.41C21.88 22.34 21.85 22.27 21.83 22.2C21.82 22.16 21.79 22.11 21.8 22.07C22.06 21.83 22.31 21.59 22.58 21.37ZM21.63 19.75C21.54 19.79 21.45 19.84 21.36 19.87C21.27 19.9 21.22 19.86 21.15 19.89C21.05 19.99 20.98 20.1 20.9 20.21C20.82 20.32 20.73 20.42 20.64 20.53C20.65 20.58 20.66 20.62 20.67 20.67C20.69 20.85 20.72 21.03 20.76 21.21C20.76 21.32 20.76 21.43 20.77 21.54L20.79 21.6C20.79 21.64 20.84 21.69 20.79 21.72C20.66 21.73 20.52 21.72 20.39 21.73C20.2 21.91 20 22.06 19.82 22.25C19.65 22.43 19.48 22.6 19.28 22.75C19.2 22.69 19.11 22.65 19.04 22.58C18.93 22.47 18.82 22.36 18.73 22.25C18.54 22.09 18.38 21.91 18.19 21.77C18.07 21.74 17.95 21.74 17.83 21.74L17.78 21.68C17.78 21.55 17.78 21.43 17.78 21.31C17.8 21.24 17.8 21.17 17.8 21.09L17.82 21.08C17.83 20.87 17.88 20.66 17.88 20.45C17.76 20.36 17.66 20.25 17.59 20.12C17.56 20.07 17.54 20.02 17.5 19.98C17.46 19.94 17.36 19.91 17.28 19.89C17.17 19.86 17.07 19.81 16.97 19.77C16.87 19.73 16.75 19.67 16.64 19.63C16.6 19.62 16.56 19.6 16.53 19.57C16.31 19.36 16.14 19.11 15.95 18.88C15.93 18.86 15.91 18.83 15.93 18.81C15.99 18.68 16.09 18.58 16.19 18.49C16.24 18.43 16.33 18.43 16.39 18.38C16.5 18.37 16.6 18.41 16.71 18.43L16.84 18.47L16.9 18.49C17.02 18.54 17.14 18.55 17.27 18.6L17.41 18.64L17.47 18.66C17.57 18.7 17.68 18.73 17.78 18.76L17.82 18.77L17.86 18.81C17.88 18.89 17.9 18.97 17.92 19.05C17.94 19.17 17.96 19.29 17.98 19.42C18.03 19.56 18.02 19.7 18.05 19.84C18.06 19.88 18.07 19.92 18.08 19.96C18.11 20.2 18.14 20.44 18.15 20.68C18.14 20.75 18.14 20.82 18.13 20.89C18.12 21.06 18.07 21.23 18.08 21.41C18.6 21.4 19.12 21.41 19.64 21.41C19.93 21.41 20.22 21.4 20.51 21.41C20.5 21.37 20.49 21.33 20.47 21.28C20.46 21.24 20.47 21.23 20.47 21.21C20.43 21.05 20.42 20.88 20.4 20.72C20.39 20.6 20.4 20.47 20.42 20.35C20.45 20.23 20.45 20.07 20.48 19.94C20.51 19.78 20.54 19.61 20.55 19.44L20.57 19.42L20.57 19.36C20.6 19.19 20.63 19.01 20.67 18.83L20.69 18.79C20.81 18.74 20.93 18.71 21.05 18.68L21.09 18.67L21.14 18.64L21.22 18.62C21.48 18.54 21.73 18.47 21.99 18.4C22.07 18.37 22.15 18.4 22.22 18.4C22.41 18.48 22.59 18.63 22.6 18.84C22.58 18.95 22.5 19.05 22.42 19.13C22.3 19.26 22.2 19.4 22.06 19.52C22.03 19.55 22 19.58 21.98 19.62L21.93 19.64C21.81 19.64 21.72 19.71 21.63 19.75Z" fill="#FFFFFF" fill-opacity="1.000000" fill-rule="nonzero"/>
		</g>
		<path id="Vector" d="M17.11 18.93C17.05 18.85 16.94 18.84 16.86 18.79C16.72 18.73 16.58 18.69 16.44 18.66C16.37 18.69 16.3 18.72 16.22 18.74C16.25 18.81 16.31 18.86 16.36 18.92C16.44 19.02 16.51 19.11 16.59 19.21C16.64 19.27 16.72 19.29 16.79 19.32C16.91 19.38 17.05 19.43 17.18 19.46C17.22 19.47 17.25 19.47 17.28 19.47C17.31 19.46 17.34 19.45 17.37 19.43C17.37 19.4 17.37 19.36 17.37 19.32C17.3 19.18 17.2 19.06 17.11 18.93Z" fill="#FFFFFF" fill-opacity="1.000000" fill-rule="nonzero"/>
		<mask id="mask422_23112" mask-type="alpha" maskUnits="userSpaceOnUse" x="17.471924" y="24.066895" width="1.788330" height="2.450928">
			<path id="Vector" d="M17.47 24.06L19.26 24.06L19.26 26.51L17.47 26.51L17.47 24.06Z" fill="#000000" fill-opacity="1.000000" fill-rule="nonzero"/>
		</mask>
		<g mask="url(#mask422_23112)">
			<path id="Vector" d="M20.42 24.82C20.31 24.74 20.21 24.65 20.1 24.56C19.89 24.4 19.68 24.23 19.44 24.12L19.38 24.1L19.3 24.08C19.24 24.09 19.18 24.11 19.13 24.13L19.03 24.16C18.86 24.24 18.72 24.36 18.57 24.47C18.49 24.55 18.39 24.6 18.31 24.67C18.16 24.8 18 24.91 17.85 25.03C17.78 25.09 17.73 25.17 17.66 25.23C17.59 25.3 17.56 25.35 17.55 25.42C17.54 25.49 17.53 25.56 17.51 25.62C17.49 25.66 17.48 25.71 17.47 25.75L17.57 25.82C17.71 25.87 17.85 25.93 17.98 26C18.08 26.04 18.19 26.08 18.29 26.12C18.46 26.2 18.64 26.24 18.8 26.33L18.83 26.34C18.97 26.39 19.09 26.46 19.23 26.51C19.34 26.51 19.44 26.45 19.54 26.41C19.84 26.27 20.15 26.17 20.45 26.04C20.59 25.98 20.73 25.91 20.88 25.86C20.94 25.83 20.99 25.81 21.04 25.77C21.03 25.64 21 25.52 20.98 25.39C20.88 25.13 20.62 24.99 20.42 24.82Z" fill="#FFFFFF" fill-opacity="1.000000" fill-rule="nonzero"/>
		</g>
	</g>
</svg>
