<svg width="1260.000000" height="145.965820" viewBox="0 0 1260 145.966" fill="none" xmlns="http://www.w3.org/2000/svg" xmlns:xlink="http://www.w3.org/1999/xlink">
	
	<defs/>
	<path id="Vector" d="M1260 142.64L1238.14 142.64L1238.14 128.59L1237.75 128.59C1235.02 133.67 1230.92 137.77 1225.46 140.89C1220.13 143.88 1214.66 145.38 1209.06 145.38C1195.8 145.38 1186.17 142.12 1180.18 135.62C1174.32 128.98 1171.41 119.03 1171.41 105.76L1171.41 41.76L1193.65 41.76L1193.65 103.62C1193.65 112.46 1195.34 118.71 1198.73 122.35C1202.11 125.99 1206.86 127.81 1212.97 127.81C1217.65 127.81 1221.56 127.1 1224.68 125.67C1227.8 124.24 1230.34 122.35 1232.29 120.01C1234.24 117.54 1235.61 114.61 1236.39 111.23C1237.3 107.84 1237.75 104.2 1237.75 100.3L1237.75 41.76L1260 41.76L1260 142.64Z" fill="currentColor" fill-opacity="1" fill-rule="nonzero"/>
	<path id="Vector" d="M1102.8 41.76L1123.68 41.76L1123.68 61.27L1124.06 61.27C1124.72 58.54 1125.96 55.87 1127.78 53.27C1129.73 50.67 1132.01 48.33 1134.61 46.25C1137.34 44.03 1140.32 42.28 1143.59 40.98C1146.84 39.67 1150.16 39.02 1153.54 39.02C1156.14 39.02 1157.9 39.09 1158.81 39.22C1159.85 39.35 1160.89 39.48 1161.93 39.61L1161.93 61.08C1160.37 60.82 1158.74 60.62 1157.05 60.49C1155.49 60.23 1153.93 60.1 1152.37 60.1C1148.59 60.1 1145.02 60.88 1141.63 62.44C1138.38 63.87 1135.52 66.08 1133.05 69.08C1130.57 71.94 1128.62 75.52 1127.18 79.81C1125.76 84.1 1125.05 89.05 1125.05 94.64L1125.05 142.64L1102.8 142.64L1102.8 41.76Z" fill="currentColor" fill-opacity="1" fill-rule="nonzero"/>
	<path id="Vector" d="M1050.24 116.3L1077.37 116.3L1077.37 142.64L1050.24 142.64L1050.24 116.3Z" fill="currentColor" fill-opacity="1" fill-rule="nonzero"/>
	<path id="Vector" d="M997.79 41.76L1018.68 41.76L1018.68 61.27L1019.07 61.27C1019.72 58.54 1020.96 55.87 1022.78 53.27C1024.73 50.67 1027 48.33 1029.61 46.25C1032.34 44.03 1035.32 42.28 1038.57 40.98C1041.84 39.67 1045.15 39.02 1048.54 39.02C1051.14 39.02 1052.89 39.09 1053.8 39.22C1054.84 39.35 1055.89 39.48 1056.93 39.61L1056.93 61.08C1055.36 60.82 1053.74 60.62 1052.05 60.49C1050.49 60.23 1048.93 60.1 1047.36 60.1C1043.59 60.1 1040.01 60.88 1036.63 62.44C1033.38 63.87 1030.52 66.08 1028.05 69.08C1025.56 71.94 1023.62 75.52 1022.19 79.81C1020.76 84.1 1020.04 89.05 1020.04 94.64L1020.04 142.64L997.79 142.64L997.79 41.76Z" fill="currentColor" fill-opacity="1" fill-rule="nonzero"/>
	<path id="Vector" d="M958.64 83.32C958.38 79.81 957.6 76.43 956.3 73.17C955.12 69.92 953.43 67.12 951.22 64.78C949.14 62.31 946.54 60.36 943.42 58.93C940.42 57.37 937.04 56.59 933.27 56.59C929.37 56.59 925.79 57.3 922.54 58.73C919.41 60.03 916.68 61.92 914.34 64.39C912.13 66.73 910.31 69.53 908.88 72.78C907.57 76.04 906.86 79.55 906.73 83.32L958.64 83.32ZM906.73 97.96C906.73 101.86 907.25 105.63 908.29 109.28C909.46 112.92 911.15 116.11 913.36 118.84C915.58 121.57 918.37 123.78 921.76 125.47C925.14 127.03 929.17 127.81 933.85 127.81C940.36 127.81 945.56 126.45 949.47 123.72C953.5 120.85 956.49 116.63 958.44 111.03L979.52 111.03C978.35 116.5 976.33 121.37 973.47 125.67C970.61 129.96 967.16 133.6 963.12 136.6C959.09 139.46 954.54 141.6 949.47 143.03C944.52 144.6 939.32 145.38 933.85 145.38C925.92 145.38 918.89 144.08 912.78 141.47C906.66 138.87 901.46 135.23 897.17 130.55C893 125.86 889.82 120.27 887.61 113.76C885.52 107.26 884.48 100.1 884.48 92.3C884.48 85.14 885.59 78.38 887.8 72C890.14 65.5 893.39 59.84 897.56 55.03C901.85 50.08 906.99 46.18 912.97 43.32C918.96 40.46 925.72 39.02 933.27 39.02C941.2 39.02 948.29 40.72 954.54 44.1C960.91 47.35 966.18 51.71 970.35 57.17C974.51 62.64 977.5 68.95 979.32 76.1C981.27 83.13 981.79 90.41 980.88 97.96L906.73 97.96Z" fill="currentColor" fill-opacity="1" fill-rule="nonzero"/>
	<path id="Vector" d="M778.22 41.76L802.42 41.76L827.98 119.23L828.37 119.23L852.96 41.76L875.98 41.76L839.88 142.64L814.9 142.64L778.22 41.76Z" fill="currentColor" fill-opacity="1" fill-rule="nonzero"/>
	<path id="Vector" d="M764.23 120.2C764.23 122.94 764.56 124.89 765.21 126.06C765.99 127.23 767.42 127.81 769.5 127.81C770.15 127.81 770.93 127.81 771.84 127.81C772.75 127.81 773.79 127.68 774.96 127.42L774.96 142.84C774.18 143.1 773.14 143.36 771.84 143.62C770.67 144.01 769.44 144.34 768.13 144.6C766.83 144.86 765.53 145.05 764.23 145.18C762.93 145.31 761.83 145.38 760.91 145.38C756.36 145.38 752.59 144.47 749.6 142.64C746.6 140.82 744.65 137.64 743.74 133.08C739.32 137.38 733.85 140.5 727.35 142.45C720.98 144.4 714.8 145.38 708.81 145.38C704.26 145.38 699.9 144.73 695.74 143.42C691.57 142.25 687.87 140.5 684.61 138.16C681.49 135.68 678.96 132.63 677 128.98C675.18 125.21 674.27 120.85 674.27 115.91C674.27 109.67 675.38 104.59 677.59 100.69C679.93 96.79 682.92 93.73 686.57 91.52C690.34 89.31 694.5 87.75 699.05 86.83C703.74 85.79 708.42 85.01 713.1 84.49C717.14 83.71 720.98 83.19 724.62 82.93C728.26 82.54 731.45 81.96 734.18 81.17C737.04 80.39 739.25 79.22 740.82 77.66C742.51 75.97 743.35 73.5 743.35 70.25C743.35 67.38 742.64 65.04 741.21 63.22C739.9 61.4 738.21 60.03 736.13 59.12C734.18 58.08 731.97 57.43 729.5 57.17C727.03 56.78 724.68 56.59 722.47 56.59C716.23 56.59 711.09 57.89 707.06 60.49C703.02 63.09 700.75 67.12 700.23 72.59L677.98 72.59C678.37 66.08 679.93 60.69 682.66 56.39C685.39 52.1 688.84 48.65 693.01 46.05C697.3 43.45 702.11 41.63 707.45 40.59C712.78 39.54 718.24 39.02 723.84 39.02C728.78 39.02 733.66 39.54 738.47 40.59C743.29 41.63 747.58 43.32 751.35 45.66C755.26 48 758.38 51.06 760.72 54.83C763.06 58.47 764.23 62.96 764.23 68.3L764.23 120.2ZM741.99 92.1C738.6 94.31 734.44 95.68 729.5 96.2C724.55 96.59 719.61 97.24 714.67 98.15C712.32 98.54 710.05 99.13 707.84 99.91C705.62 100.56 703.67 101.53 701.98 102.84C700.29 104.01 698.92 105.63 697.88 107.71C696.97 109.67 696.52 112.07 696.52 114.93C696.52 117.41 697.23 119.49 698.66 121.18C700.1 122.87 701.79 124.24 703.74 125.28C705.82 126.19 708.03 126.84 710.37 127.23C712.84 127.62 715.06 127.81 717.01 127.81C719.48 127.81 722.15 127.49 725.01 126.84C727.87 126.19 730.54 125.08 733.01 123.52C735.61 121.96 737.76 120.01 739.45 117.67C741.14 115.19 741.99 112.2 741.99 108.69L741.99 92.1Z" fill="currentColor" fill-opacity="1" fill-rule="nonzero"/>
	<path id="Vector" d="M611.13 41.76L632.01 41.76L632.01 61.27L632.4 61.27C633.05 58.54 634.29 55.87 636.11 53.27C638.06 50.67 640.34 48.33 642.94 46.25C645.67 44.03 648.67 42.28 651.92 40.98C655.17 39.67 658.49 39.02 661.87 39.02C664.47 39.02 666.23 39.09 667.14 39.22C668.18 39.35 669.22 39.48 670.26 39.61L670.26 61.08C668.7 60.82 667.07 60.62 665.38 60.49C663.82 60.23 662.26 60.1 660.7 60.1C656.93 60.1 653.35 60.88 649.97 62.44C646.71 63.87 643.85 66.08 641.38 69.08C638.91 71.94 636.96 75.52 635.53 79.81C634.09 84.1 633.38 89.05 633.38 94.64L633.38 142.64L611.13 142.64L611.13 41.76Z" fill="currentColor" fill-opacity="1" fill-rule="nonzero"/>
	<path id="Vector" d="M492.42 3.31L514.67 3.31L514.67 54.83L515.06 54.83C516.62 52.36 518.51 50.15 520.72 48.19C522.93 46.24 525.34 44.62 527.94 43.32C530.67 41.88 533.47 40.84 536.33 40.19C539.32 39.41 542.25 39.02 545.11 39.02C553.05 39.02 559.94 40.45 565.79 43.32C571.78 46.05 576.72 49.88 580.63 54.83C584.53 59.64 587.46 65.3 589.41 71.81C591.36 78.31 592.33 85.27 592.33 92.69C592.33 99.45 591.42 106.02 589.6 112.4C587.91 118.77 585.24 124.43 581.6 129.37C578.09 134.19 573.6 138.09 568.14 141.08C562.67 143.94 556.23 145.37 548.82 145.37C545.44 145.37 541.99 145.11 538.47 144.59C535.09 144.2 531.84 143.36 528.72 142.06C525.59 140.76 522.73 139.06 520.13 136.98C517.66 134.9 515.58 132.17 513.89 128.79L513.5 128.79L513.5 142.64L492.42 142.64L492.42 3.31ZM570.09 92.3C570.09 87.74 569.5 83.32 568.33 79.03C567.16 74.73 565.4 70.96 563.06 67.71C560.72 64.33 557.79 61.66 554.28 59.71C550.77 57.63 546.74 56.58 542.18 56.58C532.82 56.58 525.73 59.84 520.91 66.34C516.23 72.85 513.89 81.5 513.89 92.3C513.89 97.37 514.47 102.12 515.64 106.54C516.94 110.83 518.83 114.54 521.3 117.66C523.77 120.79 526.7 123.26 530.08 125.08C533.6 126.9 537.63 127.81 542.18 127.81C547.26 127.81 551.55 126.77 555.06 124.69C558.57 122.61 561.44 119.94 563.65 116.69C565.99 113.31 567.62 109.53 568.53 105.37C569.57 101.08 570.09 96.72 570.09 92.3Z" fill="currentColor" fill-opacity="1" fill-rule="nonzero"/>
	<path id="Vector" d="M430.02 88.2C429.5 89.76 429.04 91.32 428.65 92.88C428.39 94.44 428.26 95.87 428.26 97.18C428.26 98.48 428.52 99.58 429.04 100.49C429.69 101.27 430.67 101.66 431.97 101.66C434.96 101.66 437.95 100.62 440.94 98.54C444.07 96.33 446.8 93.34 449.14 89.56C451.61 85.79 453.56 81.37 454.99 76.29C456.55 71.09 457.34 65.5 457.34 59.51C457.34 52.23 455.97 45.72 453.24 40C450.51 34.14 446.73 29.2 441.92 25.17C437.24 21.14 431.71 18.08 425.33 16C419.09 13.79 412.39 12.68 405.23 12.68C396.91 12.68 389.3 14.24 382.4 17.36C375.64 20.35 369.78 24.52 364.84 29.85C359.89 35.06 356.06 41.24 353.32 48.39C350.59 55.41 349.23 63.03 349.23 71.22C349.23 80.72 350.66 89.3 353.52 96.98C356.51 104.66 360.55 111.16 365.62 116.49C370.82 121.83 376.94 125.99 383.96 128.98C391.12 131.85 398.79 133.28 406.99 133.28C415.57 133.28 423.71 131.59 431.38 128.2C439.06 124.82 445.56 120.07 450.9 113.96L464.56 113.96C458.31 124.1 450.05 131.98 439.77 137.57C429.5 143.16 418.31 145.96 406.21 145.96C396.19 145.96 386.76 144.14 377.91 140.5C369.07 136.72 361.33 131.52 354.69 124.89C348.19 118.25 343.05 110.32 339.27 101.08C335.5 91.84 333.62 81.63 333.62 70.44C333.62 60.55 335.5 51.38 339.27 42.93C343.18 34.34 348.38 26.86 354.89 20.49C361.39 14.11 368.94 9.1 377.52 5.46C386.24 1.82 395.48 0 405.23 0C413.95 0 422.21 1.43 430.02 4.29C437.95 7.02 444.91 10.92 450.9 16C456.88 21.07 461.63 27.12 465.14 34.14C468.78 41.17 470.6 48.85 470.6 57.17C470.6 66.93 468.91 75.45 465.53 82.74C462.28 90.02 458.25 96.07 453.43 100.88C448.75 105.7 443.74 109.34 438.41 111.81C433.07 114.15 428.45 115.32 424.55 115.32C421.56 115.32 418.96 114.41 416.75 112.59C414.53 110.64 413.3 107.78 413.04 104.01L412.65 104.01C410.05 107 406.79 109.6 402.89 111.81C398.99 114.02 394.95 115.13 390.79 115.13C386.76 115.13 382.99 114.35 379.47 112.79C375.96 111.1 372.9 108.88 370.3 106.15C367.83 103.29 365.88 100.04 364.45 96.39C363.02 92.62 362.3 88.65 362.3 84.49C362.3 78.25 363.34 72.13 365.42 66.15C367.51 60.16 370.37 54.76 374.01 49.95C377.78 45.14 382.27 41.3 387.47 38.44C392.81 35.45 398.66 33.95 405.04 33.95C409.59 33.95 413.75 35.06 417.53 37.27C421.3 39.48 424.42 43.06 426.89 48L430.41 36.88L444.07 36.88L430.02 88.2ZM394.5 100.49C398.4 100.49 401.98 99.39 405.23 97.18C408.48 94.83 411.28 91.97 413.62 88.59C415.97 85.08 417.79 81.3 419.09 77.27C420.52 73.11 421.23 69.27 421.23 65.76C421.23 63.42 420.78 61.2 419.87 59.12C419.09 57.04 417.98 55.22 416.55 53.66C415.25 52.1 413.62 50.86 411.67 49.95C409.85 49.04 407.9 48.58 405.82 48.58C401.79 48.58 398.08 49.69 394.69 51.9C391.44 54.11 388.65 56.91 386.3 60.29C383.96 63.55 382.14 67.19 380.84 71.22C379.54 75.25 378.89 79.09 378.89 82.74C378.89 87.94 380.25 92.23 382.99 95.61C385.85 98.87 389.69 100.49 394.5 100.49Z" fill="currentColor" fill-opacity="1" fill-rule="nonzero"/>
	<path id="Vector" d="M266.33 145.38C258.27 145.38 251.05 144.08 244.67 141.47C238.43 138.74 233.1 135.03 228.67 130.35C224.38 125.67 221.06 120.07 218.72 113.57C216.51 107.06 215.4 99.91 215.4 92.1C215.4 84.43 216.51 77.34 218.72 70.83C221.06 64.33 224.38 58.73 228.67 54.05C233.1 49.37 238.43 45.72 244.67 43.12C251.05 40.39 258.27 39.02 266.33 39.02C274.4 39.02 281.56 40.39 287.8 43.12C294.17 45.72 299.51 49.37 303.8 54.05C308.22 58.73 311.54 64.33 313.75 70.83C316.1 77.34 317.27 84.43 317.27 92.1C317.27 99.91 316.1 107.06 313.75 113.57C311.54 120.07 308.22 125.67 303.8 130.35C299.51 135.03 294.17 138.74 287.8 141.47C281.56 144.08 274.4 145.38 266.33 145.38ZM266.33 127.81C271.28 127.81 275.57 126.77 279.21 124.69C282.86 122.61 285.85 119.88 288.19 116.5C290.53 113.11 292.22 109.34 293.26 105.18C294.43 100.88 295.02 96.53 295.02 92.1C295.02 87.81 294.43 83.52 293.26 79.22C292.22 74.93 290.53 71.16 288.19 67.91C285.85 64.52 282.86 61.79 279.21 59.71C275.57 57.63 271.28 56.59 266.33 56.59C261.39 56.59 257.1 57.63 253.46 59.71C249.81 61.79 246.82 64.52 244.48 67.91C242.14 71.16 240.38 74.93 239.21 79.22C238.17 83.52 237.65 87.81 237.65 92.1C237.65 96.53 238.17 100.88 239.21 105.18C240.38 109.34 242.14 113.11 244.48 116.5C246.82 119.88 249.81 122.61 253.46 124.69C257.1 126.77 261.39 127.81 266.33 127.81Z" fill="currentColor" fill-opacity="1" fill-rule="nonzero"/>
	<path id="Vector" d="M148.58 41.75L165.17 41.75L165.17 33.36C165.17 26.99 165.95 21.85 167.51 17.95C169.07 13.91 171.15 10.86 173.76 8.78C176.36 6.56 179.29 5.13 182.54 4.48C185.92 3.7 189.43 3.31 193.08 3.31C200.23 3.31 205.43 3.77 208.69 4.68L208.69 22.04C207.26 21.66 205.69 21.39 204 21.26C202.44 21 200.56 20.87 198.34 20.87C195.35 20.87 192.75 21.59 190.54 23.02C188.46 24.45 187.42 27.25 187.42 31.41L187.42 41.75L206.34 41.75L206.34 58.34L187.42 58.34L187.42 142.64L165.17 142.64L165.17 58.34L148.58 58.34L148.58 41.75Z" fill="currentColor" fill-opacity="1" fill-rule="nonzero"/>
	<path id="Vector" d="M46.48 41.76L67.56 41.76L67.56 56.59L67.95 56.98C71.33 51.38 75.75 47.03 81.22 43.9C86.68 40.65 92.73 39.02 99.36 39.02C110.42 39.02 119.14 41.89 125.51 47.61C131.89 53.33 135.07 61.92 135.07 73.37L135.07 142.64L112.83 142.64L112.83 79.22C112.57 71.29 110.88 65.56 107.76 62.05C104.63 58.41 99.75 56.59 93.12 56.59C89.35 56.59 85.96 57.3 82.97 58.73C79.98 60.03 77.44 61.92 75.36 64.39C73.28 66.73 71.65 69.53 70.48 72.78C69.31 76.04 68.73 79.48 68.73 83.13L68.73 142.64L46.48 142.64L46.48 41.76Z" fill="currentColor" fill-opacity="1" fill-rule="nonzero"/>
	<path id="Vector" d="M0 3.31L22.24 3.31L22.24 24.39L0 24.39L0 3.31ZM0 41.75L22.24 41.75L22.24 142.64L0 142.64L0 41.75Z" fill="currentColor" fill-opacity="1" fill-rule="nonzero"/>
</svg>
