<svg width="19.000000" height="19.000000" viewBox="0 0 19 19" fill="none" xmlns="http://www.w3.org/2000/svg" xmlns:xlink="http://www.w3.org/1999/xlink">
	
	<defs>
		<clipPath id="clip3001_9311">
			<rect id="vuesax/bold/star" rx="0.000000" width="18.250000" height="18.250000" transform="translate(0.375000 0.375000)" fill="white" fill-opacity="0"/>
		</clipPath>
	</defs>
	<g clip-path="url(#clip3001_9311)">
		<path id="Shape" d="M8.08 2.58C8.32 2.15 8.75 1.58 9.5 1.58C10.24 1.58 10.67 2.15 10.91 2.58C11.17 3.04 11.43 3.69 11.74 4.45L11.79 4.58C11.98 5.05 12.1 5.35 12.22 5.57C12.33 5.78 12.4 5.85 12.46 5.89C12.51 5.94 12.6 5.99 12.83 6.03C13.07 6.08 13.39 6.11 13.9 6.15L14.14 6.17C14.89 6.24 15.54 6.3 16.02 6.41C16.49 6.52 17.12 6.76 17.34 7.43C17.57 8.11 17.21 8.67 16.9 9.04C16.59 9.42 16.11 9.86 15.55 10.37L15.11 10.78C14.8 11.06 14.6 11.24 14.46 11.39C14.33 11.53 14.29 11.61 14.26 11.67C14.25 11.7 14.24 11.74 14.23 11.77C14.22 11.83 14.21 11.92 14.23 12.11C14.26 12.31 14.32 12.58 14.41 12.99L14.47 13.28C14.63 13.98 14.76 14.56 14.81 15.01C14.85 15.41 14.88 16.01 14.48 16.45C14.28 16.69 14.01 16.85 13.71 16.93C13.13 17.09 12.61 16.8 12.27 16.58C11.89 16.33 11.43 15.95 10.88 15.5L10.84 15.47C10.45 15.15 10.19 14.95 9.99 14.81C9.79 14.67 9.69 14.64 9.63 14.63C9.54 14.62 9.45 14.62 9.36 14.63C9.3 14.64 9.2 14.67 9 14.81C8.8 14.95 8.54 15.15 8.15 15.47L8.11 15.5C7.56 15.95 7.1 16.33 6.72 16.58C6.38 16.8 5.86 17.09 5.29 16.93C4.98 16.85 4.71 16.69 4.51 16.45C4.11 16.01 4.14 15.41 4.18 15.01C4.23 14.56 4.36 13.98 4.52 13.28L4.58 12.99C4.67 12.58 4.73 12.31 4.76 12.11C4.78 11.92 4.77 11.83 4.76 11.77C4.75 11.74 4.74 11.7 4.73 11.67C4.7 11.61 4.66 11.53 4.53 11.39C4.39 11.24 4.19 11.06 3.88 10.78L3.44 10.37C2.88 9.86 2.4 9.42 2.09 9.04C1.78 8.67 1.42 8.11 1.65 7.43C1.87 6.76 2.5 6.52 2.97 6.41C3.45 6.3 4.1 6.24 4.85 6.17C4.87 6.17 4.89 6.17 4.91 6.17L5.09 6.15C5.6 6.11 5.92 6.08 6.16 6.03C6.39 5.99 6.48 5.94 6.53 5.89C6.59 5.85 6.66 5.78 6.77 5.57C6.89 5.35 7.01 5.05 7.2 4.58L7.23 4.51C7.23 4.49 7.24 4.47 7.25 4.45C7.56 3.69 7.82 3.04 8.08 2.58Z" fill="currentColor" fill-opacity="1.000000" fill-rule="evenodd"/>
	</g>
</svg>
