<svg width="25.000000" height="14.402344" viewBox="0 0 25 14.4023" fill="none" xmlns="http://www.w3.org/2000/svg" xmlns:xlink="http://www.w3.org/1999/xlink">
	
	<defs/>
	<rect id="Soc media / footer" rx="0.000000" width="24.000000" height="13.402174" transform="translate(0.500000 0.500000)" fill="#FFFFFF" fill-opacity="0"/>
	<path id="Vector" d="M15.13 6.92C14.68 6.75 14.68 6.1 14.65 5.65C14.53 4.04 15.1 1.57 14.42 0.53C13.93 -0.1 11.59 -0.04 10.16 0.05C9.76 0.1 9.28 0.19 8.93 0.36C8.59 0.53 8.25 0.81 8.25 1.07C8.25 1.43 9.11 1.38 9.42 1.86C9.76 2.37 9.76 3.47 9.76 4.38C9.76 5.42 9.59 6.81 9.16 6.87C8.5 6.89 8.13 6.24 7.79 5.76C7.11 4.83 6.42 3.67 5.9 2.54C5.65 1.94 5.5 1.29 5.13 1.04C4.56 0.64 3.53 0.61 2.53 0.64C1.62 0.67 0.3 0.55 0.05 1.09C-0.15 1.69 0.28 2.25 0.5 2.73C1.68 5.25 2.93 7.46 4.48 9.55C5.9 11.51 7.25 13.06 9.88 13.88C10.62 14.11 13.88 14.76 14.53 13.88C14.76 13.54 14.7 12.78 14.82 12.21C14.93 11.65 15.08 11.08 15.62 11.05C16.08 11.03 16.33 11.42 16.62 11.71C16.93 12.02 17.19 12.27 17.42 12.55C17.96 13.09 18.53 13.83 19.22 14.11C20.16 14.51 21.62 14.39 22.99 14.34C24.11 14.31 24.9 14.08 24.99 13.43C25.05 12.92 24.48 12.19 24.13 11.76C23.28 10.71 22.88 10.4 21.9 9.44C21.48 9.02 20.93 8.56 20.93 8.05C20.9 7.74 21.16 7.46 21.39 7.15C22.39 5.68 23.39 4.63 24.3 3.1C24.56 2.65 25.16 1.6 24.93 1.09C24.68 0.53 23.25 0.7 22.36 0.7C21.22 0.7 19.73 0.61 19.45 0.84C18.9 1.2 18.68 1.8 18.42 2.37C17.85 3.67 17.08 5 16.28 5.99C15.99 6.33 15.45 7.04 15.13 6.92L15.13 6.92Z" fill="currentColor" fill-opacity="1.000000" fill-rule="evenodd"/>
</svg>
