<svg width="22.000000" height="22.000000" viewBox="0 0 22 22" fill="none" xmlns="http://www.w3.org/2000/svg" xmlns:xlink="http://www.w3.org/1999/xlink">
	
	<defs/>
	<path id="whatsapp-[#128]" d="M17.4 15.53C17.13 16.28 16.08 16.9 15.24 17.08C14.66 17.2 13.91 17.3 11.39 16.25C8.55 15.08 4.6 10.89 4.6 8.1C4.6 6.68 5.42 5.03 6.85 5.03C7.54 5.03 7.69 5.04 7.92 5.58C8.19 6.22 8.83 7.8 8.91 7.96C9.23 8.63 8.59 9.01 8.12 9.59C7.97 9.77 7.8 9.95 7.99 10.28C8.18 10.59 8.83 11.65 9.78 12.5C11 13.59 12 13.94 12.36 14.09C12.62 14.2 12.94 14.17 13.13 13.96C13.38 13.7 13.68 13.26 13.99 12.83C14.21 12.51 14.49 12.48 14.78 12.59C14.98 12.65 17.48 13.82 17.59 14C17.66 14.14 17.66 14.78 17.4 15.53ZM11 0L10.99 0C4.93 0 0 4.93 0 11C0 13.4 0.77 15.63 2.09 17.44L0.72 21.53L4.95 20.18C6.69 21.33 8.76 22 11 22C17.06 22 22 17.06 22 11C22 4.93 17.06 0 11 0Z" fill="currentColor" fill-opacity="1.000000" fill-rule="evenodd"/>
</svg>
