<svg width="26" height="27" viewBox="0 0 26 27" fill="none" xmlns="http://www.w3.org/2000/svg">
<path d="M24.375 13.8558C24.375 13.7999 24.375 13.7365 24.3725 13.6628C24.3699 13.4572 24.3648 13.2261 24.3598 12.9798C24.3395 12.2714 24.3039 11.5656 24.248 10.9003C24.1719 9.98374 24.0602 9.21948 23.9078 8.64565C23.747 8.04681 23.4319 7.50066 22.9939 7.06178C22.5559 6.6229 22.0104 6.30666 21.4119 6.14468C20.6934 5.95171 19.2867 5.83237 17.3062 5.75874C16.3643 5.72319 15.3562 5.70034 14.3482 5.68765C13.9953 5.68257 13.6678 5.68003 13.3732 5.67749H12.6268C12.3322 5.68003 12.0047 5.68257 11.6518 5.68765C10.6438 5.70034 9.63574 5.72319 8.69375 5.75874C6.71328 5.83491 5.3041 5.95425 4.58809 6.14468C3.98938 6.30626 3.44365 6.62236 3.0056 7.06131C2.56755 7.50025 2.25255 8.04662 2.09219 8.64565C1.9373 9.21948 1.82812 9.98374 1.75195 10.9003C1.69609 11.5656 1.66055 12.2714 1.64023 12.9798C1.63262 13.2261 1.63008 13.4572 1.62754 13.6628C1.62754 13.7365 1.625 13.7999 1.625 13.8558V13.998C1.625 14.0539 1.625 14.1173 1.62754 14.191C1.63008 14.3966 1.63516 14.6277 1.64023 14.874C1.66055 15.5824 1.69609 16.2882 1.75195 16.9535C1.82812 17.8701 1.93984 18.6343 2.09219 19.2082C2.41719 20.4244 3.37187 21.3841 4.58809 21.7091C5.3041 21.9021 6.71328 22.0214 8.69375 22.0951C9.63574 22.1306 10.6438 22.1535 11.6518 22.1662C12.0047 22.1712 12.3322 22.1738 12.6268 22.1763H13.3732C13.6678 22.1738 13.9953 22.1712 14.3482 22.1662C15.3562 22.1535 16.3643 22.1306 17.3062 22.0951C19.2867 22.0189 20.6959 21.8996 21.4119 21.7091C22.6281 21.3841 23.5828 20.4269 23.9078 19.2082C24.0627 18.6343 24.1719 17.8701 24.248 16.9535C24.3039 16.2882 24.3395 15.5824 24.3598 14.874C24.3674 14.6277 24.3699 14.3966 24.3725 14.191C24.3725 14.1173 24.375 14.0539 24.375 13.998V13.8558ZM22.5469 13.9878C22.5469 14.0412 22.5469 14.0996 22.5443 14.1681C22.5418 14.3662 22.5367 14.5845 22.5316 14.8207C22.5139 15.496 22.4783 16.1714 22.425 16.7986C22.3564 17.6162 22.26 18.2865 22.1406 18.7359C21.9832 19.3224 21.5211 19.7871 20.9371 19.9419C20.4039 20.0841 19.0607 20.1984 17.2352 20.2669C16.3109 20.3025 15.3156 20.3253 14.3229 20.338C13.975 20.3431 13.6525 20.3456 13.3631 20.3456H12.6369L11.6771 20.338C10.6844 20.3253 9.6916 20.3025 8.76484 20.2669C6.93926 20.1958 5.59355 20.0841 5.06289 19.9419C4.47891 19.7845 4.0168 19.3224 3.85938 18.7359C3.74004 18.2865 3.64355 17.6162 3.575 16.7986C3.52168 16.1714 3.48867 15.496 3.46836 14.8207C3.46074 14.5845 3.4582 14.3636 3.45566 14.1681C3.45566 14.0996 3.45312 14.0386 3.45312 13.9878V13.866C3.45312 13.8126 3.45313 13.7542 3.45566 13.6857C3.4582 13.4876 3.46328 13.2693 3.46836 13.0332C3.48613 12.3578 3.52168 11.6824 3.575 11.0552C3.64355 10.2376 3.74004 9.56733 3.85938 9.11792C4.0168 8.5314 4.47891 8.06675 5.06289 7.91186C5.59609 7.76968 6.93926 7.65542 8.76484 7.58686C9.68906 7.55132 10.6844 7.52847 11.6771 7.51577C12.025 7.51069 12.3475 7.50815 12.6369 7.50815H13.3631L14.3229 7.51577C15.3156 7.52847 16.3084 7.55132 17.2352 7.58686C19.0607 7.65796 20.4064 7.76968 20.9371 7.91186C21.5211 8.06929 21.9832 8.5314 22.1406 9.11792C22.26 9.56733 22.3564 10.2376 22.425 11.0552C22.4783 11.6824 22.5113 12.3578 22.5316 13.0332C22.5393 13.2693 22.5418 13.4902 22.5443 13.6857C22.5443 13.7542 22.5469 13.8152 22.5469 13.866V13.9878ZM10.7402 17.3292L16.6309 13.9015L10.7402 10.5246V17.3292Z" fill="currentColor"/>
</svg>
